<mxfile host="app.diagrams.net" modified="2023-10-14T16:33:22.724Z" agent="Mozilla/5.0 (Windows NT 10.0; Win64; x64) AppleWebKit/537.36 (KHTML, like Gecko) Chrome/116.0.0.0 Safari/537.36 OPR/102.0.0.0" etag="v_pWVRPiu_EAEgJCHtq4" version="21.6.1" type="device">
  <diagram name="Pagina-1" id="wN6YJSM4o66fR8LFv3Vh">
    <mxGraphModel dx="2169" dy="2539" grid="1" gridSize="10" guides="1" tooltips="1" connect="1" arrows="1" fold="1" page="1" pageScale="1" pageWidth="827" pageHeight="1169" math="0" shadow="0">
      <root>
        <mxCell id="0" />
        <mxCell id="1" parent="0" />
        <mxCell id="5UGKIeRZJDmRClwh3Alo-3" value="&lt;font style=&quot;font-size: 18px;&quot;&gt;Kawaii Comix&lt;/font&gt;" style="swimlane;whiteSpace=wrap;html=1;startSize=80;fillColor=#FF6F88;align=left;" parent="1" vertex="1">
          <mxGeometry x="-680" y="-840" width="1020" height="644" as="geometry" />
        </mxCell>
        <mxCell id="5UGKIeRZJDmRClwh3Alo-8" value="" style="whiteSpace=wrap;html=1;fillColor=#CCFFFF;" parent="5UGKIeRZJDmRClwh3Alo-3" vertex="1">
          <mxGeometry y="80" width="1020" height="520" as="geometry" />
        </mxCell>
        <mxCell id="5UGKIeRZJDmRClwh3Alo-9" value="Home" style="rounded=1;whiteSpace=wrap;html=1;fillColor=#FFCCCC;" parent="5UGKIeRZJDmRClwh3Alo-3" vertex="1">
          <mxGeometry x="560" y="20" width="80" height="40" as="geometry" />
        </mxCell>
        <mxCell id="5UGKIeRZJDmRClwh3Alo-10" value="Catalogo" style="rounded=1;whiteSpace=wrap;html=1;fillColor=#FFCCCC;" parent="5UGKIeRZJDmRClwh3Alo-3" vertex="1">
          <mxGeometry x="650" y="20" width="80" height="40" as="geometry" />
        </mxCell>
        <mxCell id="5UGKIeRZJDmRClwh3Alo-11" value="Ricerca" style="rounded=1;whiteSpace=wrap;html=1;fillColor=#FFCCCC;" parent="5UGKIeRZJDmRClwh3Alo-3" vertex="1">
          <mxGeometry x="740" y="20" width="80" height="40" as="geometry" />
        </mxCell>
        <mxCell id="5UGKIeRZJDmRClwh3Alo-12" value="Area Utente" style="rounded=1;whiteSpace=wrap;html=1;fillColor=#FFCCCC;" parent="5UGKIeRZJDmRClwh3Alo-3" vertex="1">
          <mxGeometry x="830" y="20" width="80" height="40" as="geometry" />
        </mxCell>
        <mxCell id="5UGKIeRZJDmRClwh3Alo-13" value="Carrello" style="rounded=1;whiteSpace=wrap;html=1;fillColor=#FFCCCC;" parent="5UGKIeRZJDmRClwh3Alo-3" vertex="1">
          <mxGeometry x="920" y="20" width="80" height="40" as="geometry" />
        </mxCell>
        <mxCell id="5UGKIeRZJDmRClwh3Alo-15" value="&lt;font size=&quot;3&quot;&gt;&lt;b&gt;Prodotto3&lt;/b&gt;&lt;/font&gt;" style="rounded=0;whiteSpace=wrap;html=1;fillColor=#66B2FF;" parent="5UGKIeRZJDmRClwh3Alo-3" vertex="1">
          <mxGeometry x="455" y="490" width="110" height="100" as="geometry" />
        </mxCell>
        <mxCell id="Ni02j1AWVYw0AMUqFdcu-10" value="&lt;font size=&quot;3&quot;&gt;&lt;b&gt;Prodotto2&lt;/b&gt;&lt;/font&gt;" style="rounded=0;whiteSpace=wrap;html=1;fillColor=#66B2FF;" vertex="1" parent="5UGKIeRZJDmRClwh3Alo-3">
          <mxGeometry x="330" y="490" width="110" height="100" as="geometry" />
        </mxCell>
        <mxCell id="Ni02j1AWVYw0AMUqFdcu-11" value="&lt;font size=&quot;3&quot;&gt;&lt;b&gt;Prodotto1&lt;/b&gt;&lt;/font&gt;" style="rounded=0;whiteSpace=wrap;html=1;fillColor=#66B2FF;" vertex="1" parent="5UGKIeRZJDmRClwh3Alo-3">
          <mxGeometry x="200" y="490" width="110" height="100" as="geometry" />
        </mxCell>
        <mxCell id="Ni02j1AWVYw0AMUqFdcu-12" value="&lt;font size=&quot;3&quot;&gt;&lt;b&gt;Prodotto4&lt;/b&gt;&lt;/font&gt;" style="rounded=0;whiteSpace=wrap;html=1;fillColor=#66B2FF;" vertex="1" parent="5UGKIeRZJDmRClwh3Alo-3">
          <mxGeometry x="580" y="490" width="110" height="100" as="geometry" />
        </mxCell>
        <mxCell id="Ni02j1AWVYw0AMUqFdcu-13" value="&lt;font size=&quot;3&quot;&gt;&lt;b&gt;Prodotto5&lt;br&gt;&lt;/b&gt;&lt;/font&gt;" style="rounded=0;whiteSpace=wrap;html=1;fillColor=#66B2FF;" vertex="1" parent="5UGKIeRZJDmRClwh3Alo-3">
          <mxGeometry x="710" y="490" width="110" height="100" as="geometry" />
        </mxCell>
        <mxCell id="Ni02j1AWVYw0AMUqFdcu-14" value="&lt;h1&gt;Ultime Uscite&lt;/h1&gt;" style="rounded=0;whiteSpace=wrap;html=1;fillColor=none;align=center;strokeColor=none;" vertex="1" parent="5UGKIeRZJDmRClwh3Alo-3">
          <mxGeometry x="20" y="420" width="980" height="60" as="geometry" />
        </mxCell>
        <mxCell id="5UGKIeRZJDmRClwh3Alo-4" value="" style="endArrow=none;html=1;rounded=0;" parent="1" edge="1">
          <mxGeometry width="50" height="50" relative="1" as="geometry">
            <mxPoint x="-680" y="-240" as="sourcePoint" />
            <mxPoint x="320" y="-240" as="targetPoint" />
          </mxGeometry>
        </mxCell>
        <mxCell id="5UGKIeRZJDmRClwh3Alo-5" value="&lt;font size=&quot;3&quot;&gt;Footer&lt;/font&gt;" style="whiteSpace=wrap;html=1;fillColor=#B3B3B3;" parent="1" vertex="1">
          <mxGeometry x="-680" y="-240" width="1020" height="60" as="geometry" />
        </mxCell>
        <mxCell id="5UGKIeRZJDmRClwh3Alo-14" value="&lt;h1&gt;&lt;font style=&quot;font-size: 36px;&quot;&gt;CAROUSEL&lt;/font&gt;&lt;/h1&gt;" style="rounded=0;whiteSpace=wrap;html=1;fillColor=#66B2FF;align=center;strokeColor=#000000;" parent="1" vertex="1">
          <mxGeometry x="-660" y="-720" width="980" height="280" as="geometry" />
        </mxCell>
      </root>
    </mxGraphModel>
  </diagram>
</mxfile>
